<?xml version="1.0" encoding="utf-8"?>
<!-- Generator: Adobe Illustrator 21.1.0, SVG Export Plug-In . SVG Version: 6.00 Build 0)  -->
<svg version="1.1" id="Слой_1" xmlns="http://www.w3.org/2000/svg" xmlns:xlink="http://www.w3.org/1999/xlink" x="0px" y="0px"
	 viewBox="0 0 24.2 18.3" style="enable-background:new 0 0 24.2 18.3;" xml:space="preserve">
<style type="text/css">
	.st0{fill:#231F20;}
</style>
<g>
	<path class="st0" d="M10.1,4.2C9.7,1.8,7.6,0,5.1,0C2.3,0,0,2.3,0,5.1s2.3,5.1,5.1,5.1c2.5,0,4.5-1.7,5-4.1h12.6V4.2H10.1z
		 M5.1,8.4c-1.8,0-3.3-1.5-3.3-3.3s1.5-3.3,3.3-3.3s3.3,1.5,3.3,3.3S6.9,8.4,5.1,8.4z"/>
	<path class="st0" d="M14.1,14c0.4,2.4,2.5,4.2,5,4.2c2.8,0,5.1-2.3,5.1-5.1S21.9,8,19.1,8c-2.5,0-4.5,1.7-5,4.1H1.5V14H14.1z
		 M19.1,9.9c1.8,0,3.3,1.5,3.3,3.3s-1.5,3.3-3.3,3.3s-3.3-1.5-3.3-3.3S17.3,9.9,19.1,9.9z"/>
</g>
</svg>
